<svg xmlns="http://www.w3.org/2000/svg" width="800" height="900" viewBox="0 0 800 900"><defs><linearGradient id="g1" x1="0" y1="0" x2="1" y2="1"><stop offset="0%" stop-color="#1a1a2e"/><stop offset="50%" stop-color="#16213e"/><stop offset="100%" stop-color="#8b6914"/></linearGradient><linearGradient id="g2" x1="0" y1="0" x2="0" y2="1"><stop offset="0%" stop-color="#b8860b" stop-opacity=".3"/><stop offset="100%" stop-color="#b8860b" stop-opacity="0"/></linearGradient></defs><rect width="800" height="900" fill="url(#g1)"/><rect x="280" y="80" width="240" height="560" rx="8" fill="none" stroke="#b8860b" stroke-width="3" opacity=".6"/><rect x="300" y="100" width="200" height="520" rx="4" fill="url(#g2)"/><rect x="340" y="200" width="120" height="220" rx="2" fill="none" stroke="#d4a84b" stroke-width="2" opacity=".5"/><circle cx="400" cy="420" r="4" fill="#d4a84b"/><rect x="336" y="460" width="128" height="30" rx="2" fill="none" stroke="#d4a84b" stroke-width="1.5" opacity=".4"/><rect x="336" y="510" width="128" height="30" rx="2" fill="none" stroke="#d4a84b" stroke-width="1.5" opacity=".4"/><rect x="336" y="560" width="128" height="30" rx="2" fill="none" stroke="#d4a84b" stroke-width="1.5" opacity=".4"/><rect x="320" y="660" width="160" height="8" rx="2" fill="#b8860b" opacity=".3"/><rect x="310" y="680" width="180" height="12" rx="2" fill="#b8860b" opacity=".2"/><rect x="330" y="700" width="140" height="6" rx="2" fill="#b8860b" opacity=".15"/><text x="400" y="780" text-anchor="middle" font-family="Georgia,serif" font-size="32" fill="#d4a84b" opacity=".8">MONERCO</text><text x="400" y="820" text-anchor="middle" font-family="sans-serif" font-size="14" fill="#d4a84b" opacity=".5">Vertical Transportation</text></svg>